<svg width="161" height="26" viewBox="0 0 161 26" fill="none" xmlns="http://www.w3.org/2000/svg">
<path fill-rule="evenodd" clip-rule="evenodd" d="M7.15845 19.9454C4.41076 19.9454 2.53349 17.6284 2.53349 14.6134C2.53349 11.5661 4.46124 9.23707 7.20347 9.23707C8.41223 9.23707 9.68648 9.68811 10.6633 10.4385L11.7629 8.72024C10.4887 7.62618 8.70419 7.0221 7.01247 7.0221C3.02464 7.0221 0 10.3177 0 14.6698C0 18.9386 2.92914 22.1912 6.92515 22.1912C8.63052 22.1912 10.5269 21.5925 11.782 20.5173L10.6633 18.7547C9.73287 19.4621 8.41223 19.9454 7.15708 19.9454H7.15845ZM25.6719 11.8131C25.6719 9.15652 23.8751 7.22346 20.785 7.22346H15.8626V21.9765H18.3184V16.4458H20.358L23.313 21.9818H26.2217L22.8656 16.0887C24.6323 15.4081 25.6733 13.8241 25.6733 11.8131H25.6719ZM34.0623 7.22346L29.0826 21.9711H31.6448L32.8017 18.2661H38.0979L39.2685 21.9711H41.9643L36.9164 7.22615H34.0514L34.0623 7.22346ZM55.082 9.04913V7.23286H45.199V9.37802H51.9455L44.9548 20.1951V21.9832H55.187V19.8125H48.0654L55.1052 9.05316L55.082 9.04913ZM64.5843 13.4025L61.1735 7.23152H58.3222L63.2882 15.8403V21.9751H65.7576V15.8269L70.8205 7.22346H68.1519L64.5856 13.3985L64.5843 13.4025ZM81.7335 14.1731C82.8112 13.5824 83.4252 12.5125 83.4252 11.0587C83.4252 8.64238 81.7471 7.23286 78.9503 7.23286H74.3117V21.9791H79.7279C82.4702 21.9791 84.2983 20.2474 84.2983 17.8043C84.2983 15.9357 83.2069 14.6053 81.7062 14.1731H81.7335ZM92.7719 7.23286L87.7923 21.9791H90.3517L91.5113 18.2741H96.8048L97.9781 21.9791H100.679L95.6411 7.23286H92.7856H92.7719ZM112.532 14.1731C113.613 13.5824 114.234 12.5125 114.234 11.0587C114.234 8.64238 112.569 7.23286 109.759 7.23286H105.12V21.9791H110.55C113.292 21.9791 115.134 20.2474 115.134 17.8043C115.134 15.9357 114.043 14.6053 112.556 14.1731H112.532ZM124.17 13.4025L120.773 7.23286H117.908L122.874 15.8417V21.9805H125.35V15.8283L130.398 7.23286H127.737L124.163 13.4039L124.17 13.4025ZM107.577 9.39547H109.46C110.838 9.39547 111.775 9.94854 111.775 11.3044C111.775 12.7099 110.807 13.3717 109.579 13.3717H107.573V9.39547H107.577ZM110.19 19.8045H107.575V15.4416H110.013C111.577 15.4416 112.605 16.1397 112.605 17.6298C112.605 19.1198 111.577 19.8045 110.187 19.8045H110.19ZM92.158 16.184L94.1499 9.8398L96.169 16.1759H92.158V16.184ZM76.777 9.39547H78.6597C80.0376 9.39547 80.9735 9.94854 80.9735 11.3044C80.9735 12.7099 80.0049 13.3717 78.7825 13.3717H76.777V9.39547ZM79.3896 19.8045H76.7838V15.4416H79.2259C80.7948 15.4416 81.818 16.1397 81.818 17.6298C81.818 19.1198 80.7948 19.8045 79.4032 19.8045H79.3896ZM33.4538 16.184L35.4457 9.8398L37.4649 16.1759H33.4538V16.184ZM20.4644 14.2644H18.3225V9.40487H20.4644C22.1111 9.40487 23.1793 10.2278 23.1793 11.848C23.1793 13.3958 22.2107 14.2617 20.4644 14.2617V14.2644ZM152.794 3.6916C151.791 3.356 151.397 2.63111 150.827 1.83909C150.213 0.988615 149.346 0.346132 148.346 0C148.818 1.50349 147.915 3.1278 146.391 3.57079C143.692 4.28523 141.346 5.9351 139.784 8.2167C138.223 10.4983 137.552 13.258 137.894 15.9879C138.237 18.7177 139.57 21.234 141.649 23.0734C143.727 24.9127 146.411 25.9515 149.206 25.9983C152.001 26.0452 154.719 25.0971 156.86 23.3284C159.001 21.5598 160.421 19.0898 160.857 16.373C161.294 13.6562 160.719 10.8755 159.238 8.54293C157.756 6.21031 155.469 4.48272 152.795 3.67818L152.794 3.6916ZM149.413 21.9899C148.029 21.9899 146.702 21.4489 145.723 20.486C144.745 19.523 144.195 18.217 144.195 16.8552C144.195 15.4934 144.745 14.1874 145.723 13.2244C146.702 12.2615 148.029 11.7205 149.413 11.7205C150.797 11.7205 152.125 12.2615 153.103 13.2244C154.082 14.1874 154.632 15.4934 154.632 16.8552C154.632 18.217 154.082 19.523 153.103 20.486C152.125 21.4489 150.797 21.9899 149.413 21.9899Z" fill="black"/>
<path fill-rule="evenodd" clip-rule="evenodd" d="M24.6719 11.9281V11.8131C24.6719 10.7149 24.305 9.83907 23.6888 9.23774C23.0725 8.63631 22.1181 8.22346 20.785 8.22346H16.8626V20.9765H17.3184V15.4458H20.9577L23.9128 20.9818H24.5014L21.4213 15.5734L22.5061 15.1555C23.8247 14.6476 24.6344 13.4999 24.6719 11.9281ZM25.582 12.8131C25.3562 14.0073 24.7191 14.9892 23.7555 15.6306C23.4841 15.8113 23.1868 15.9649 22.8656 16.0887L26.2217 21.9818H23.313L20.358 16.4458H18.3184V21.9765H15.8626V7.22346H20.785C23.8751 7.22346 25.6719 9.15652 25.6719 11.8131H25.6733C25.6733 11.8552 25.6728 11.8971 25.6719 11.9389C25.6653 12.2409 25.635 12.5328 25.582 12.8131ZM29.0826 21.9711H31.6448L32.8017 18.2661H38.0979L39.2685 21.9711H41.9643L36.9164 7.22615H34.0614L34.0623 7.22346L34.0514 7.22615H34.0614L29.0826 21.9711ZM34.7792 8.22615L30.4758 20.9711H30.9094L32.0663 17.2661H38.8307L40.0012 20.9711H40.565L36.2018 8.22615H35.981L38.8331 17.1759H33.4538V16.3373L32.4538 16.184V15.1759H32.7222L34.9042 8.22615H34.7792ZM33.4564 16.1759H33.4538V16.184L33.4564 16.1759H37.4649L35.4457 9.8398L33.4564 16.1759ZM54.082 8.79052L46.2161 20.8125H54.187V20.9832H45.9548V20.4901L53.7824 8.37802H46.199V8.23286H54.082V8.79052ZM55.082 9.04913L55.1052 9.05316L48.0654 19.8125H55.187V21.9832H44.9548V20.1951L51.9455 9.37802H45.199V7.23286H55.082V9.04913ZM64.7576 15.7833L60.5837 8.23152H60.0535L64.2882 15.5726V20.9751H64.7576V15.7833ZM65.1182 14.9417L69.0717 8.22346H68.7292L65.501 13.8132L65.1182 14.9417ZM68.1519 7.22346H70.8205L65.7576 15.8269V21.9751H63.2882V15.8403L58.3222 7.23152H61.1735L64.5843 13.4025L64.5856 13.3985L68.1519 7.22346ZM81.7062 14.1731C81.7153 14.1757 81.7244 14.1784 81.7335 14.1811C81.7352 14.1816 81.7369 14.1821 81.7387 14.1826C82.1147 14.2946 82.4646 14.4633 82.7774 14.683C83.6988 15.33 84.2983 16.4193 84.2983 17.8043C84.2983 20.2474 82.4702 21.9791 79.7279 21.9791H74.3117V7.23286H78.9503C81.7471 7.23286 83.4252 8.64238 83.4252 11.0587C83.4252 12.0414 83.1447 12.8487 82.63 13.4511C82.3833 13.7399 82.0827 13.9817 81.7335 14.1731H81.7062ZM81.5995 13.9287L81.2751 13.3366C81.188 13.4378 81.0929 13.533 80.9901 13.6219C80.3663 14.1606 79.5631 14.3717 78.7825 14.3717H75.777V8.39547H78.6597C79.4575 8.39547 80.2867 8.55155 80.9372 9.04439C81.6362 9.57394 81.9735 10.372 81.9735 11.3044C81.9735 12.0531 81.7637 12.7148 81.3585 13.2348C82.0137 12.8317 82.4252 12.1397 82.4252 11.0587C82.4252 10.0979 82.1016 9.43787 81.5885 9.00128C81.0536 8.54616 80.1923 8.23286 78.9503 8.23286H75.3117V20.9791H79.7279C80.8879 20.9791 81.7757 20.6154 82.3632 20.0731C82.9451 19.5359 83.2983 18.7646 83.2983 17.8043C83.2983 16.5687 82.6992 15.7069 81.8539 15.2964C82.5024 15.8748 82.818 16.6914 82.818 17.6298C82.818 18.6224 82.4656 19.4678 81.7719 20.0447C81.1067 20.5979 80.248 20.8045 79.4032 20.8045H75.7838V14.4416H79.2259C80.0185 14.4416 80.8028 14.5928 81.4491 14.9943L81.5995 13.9287ZM90.7765 17.2741H97.5371L98.7104 20.9791H99.281L94.926 8.23286H94.6873L97.5373 17.1759H92.158V16.3373L91.158 16.184V15.1759H91.4264L93.6063 8.23286H93.4897L89.1854 20.9791H89.6168L90.7765 17.2741ZM90.3517 21.9791H87.7923L92.7719 7.23286H95.6411L100.679 21.9791H97.9781L96.8048 18.2741H91.5113L90.3517 21.9791ZM92.1605 16.1759H92.158V16.184L92.1605 16.1759H96.169L94.1499 9.8398L92.1605 16.1759ZM112.162 13.2324C112.566 12.7128 112.775 12.0518 112.775 11.3044C112.775 10.3714 112.437 9.57348 111.738 9.04415C111.087 8.55156 110.258 8.39547 109.46 8.39547H106.573V14.3717H109.579C110.361 14.3717 111.166 14.1611 111.79 13.6224C111.89 13.5369 111.982 13.4454 112.066 13.3483L112.407 14.6833L112.304 15.039C111.645 14.6042 110.833 14.4416 110.013 14.4416H106.575V20.8045H110.187C110.188 20.8045 110.189 20.8045 110.19 20.8045C111.033 20.804 111.891 20.5973 112.556 20.0454C113.25 19.469 113.605 18.6237 113.605 17.6298C113.605 16.6587 113.266 15.8192 112.572 15.2387C113.473 15.6221 114.134 16.5068 114.134 17.8043C114.134 18.7623 113.779 19.5335 113.194 20.0717C112.602 20.6153 111.71 20.9791 110.55 20.9791H106.12V8.23286H109.759C111.009 8.23286 111.869 8.54665 112.401 9.00056C112.912 9.43593 113.234 10.0954 113.234 11.0587C113.234 12.1342 112.82 12.8273 112.162 13.2324ZM105.12 21.9791H110.55C113.292 21.9791 115.134 20.2474 115.134 17.8043C115.134 16.4085 114.525 15.3131 113.597 14.6679C113.283 14.4493 112.932 14.2825 112.556 14.1731H112.532C112.54 14.1688 112.548 14.1646 112.556 14.1603C112.557 14.1595 112.559 14.1586 112.56 14.1578C112.904 13.9658 113.201 13.7245 113.444 13.4372C113.954 12.8362 114.234 12.0338 114.234 11.0587C114.234 8.64238 112.569 7.23286 109.759 7.23286H105.12V21.9791ZM110.19 19.8045C111.579 19.8036 112.605 19.1189 112.605 17.6298C112.605 16.1397 111.577 15.4416 110.013 15.4416H107.575V19.8045H110.19ZM125.127 14.2331L123.307 14.5918L123.874 15.5739V20.9805H124.35V15.5563L125.127 14.2331ZM125.458 13.6692L128.651 8.23286H128.314L125.315 13.4097L125.458 13.6692ZM124.167 13.3972L120.773 7.23286H117.908L122.874 15.8417V21.9805H125.35V15.8283L130.398 7.23286H127.737L124.167 13.3972ZM122.814 13.7373L123.018 13.3847L120.182 8.23286H119.639L122.814 13.7373ZM124.163 13.4039L124.167 13.3972L124.17 13.4025L124.163 13.4039ZM21.4644 15.2644H17.3225V8.40487H20.4644C21.4413 8.40487 22.3822 8.64835 23.0929 9.2619C23.8261 9.89492 24.1793 10.8051 24.1793 11.848C24.1793 12.8377 23.8622 13.7407 23.1417 14.3822C22.6748 14.7978 22.0991 15.0494 21.4644 15.1715V15.2644ZM153.414 4.95375L152.477 4.6399C151.266 4.23472 150.66 3.35576 150.201 2.68939C150.137 2.59591 150.075 2.50662 150.015 2.42341C149.827 2.16218 149.608 1.92505 149.365 1.71621C149.044 3.02413 148.039 4.13336 146.671 4.53104L146.659 4.53441L146.647 4.53751C144.177 5.19125 142.034 6.69996 140.61 8.78143C139.185 10.8625 138.575 13.3773 138.887 15.8634C139.199 18.3496 140.413 20.6447 142.311 22.3245C144.21 24.0046 146.664 24.9556 149.223 24.9985C151.781 25.0414 154.267 24.1733 156.223 22.5575C158.179 20.942 159.472 18.6887 159.87 16.2142C160.268 13.7399 159.745 11.2063 158.394 9.07902C157.213 7.21957 155.468 5.7788 153.414 4.95375ZM153.766 4.01742C153.47 3.89926 153.169 3.79279 152.862 3.6985C152.841 3.69195 152.82 3.68547 152.798 3.67904C152.797 3.67875 152.796 3.67847 152.795 3.67818L152.794 3.6916C152.793 3.69133 152.792 3.69106 152.792 3.69079C152.774 3.68479 152.756 3.67867 152.739 3.67243C152.371 3.54126 152.087 3.35626 151.845 3.13437C151.536 2.85093 151.296 2.50731 151.038 2.13886C150.97 2.04048 150.9 1.94033 150.827 1.83909C150.456 1.32489 149.992 0.886721 149.463 0.54411C149.116 0.320053 148.742 0.136858 148.346 0C148.464 0.373834 148.496 0.755133 148.455 1.12389C148.331 2.2382 147.536 3.23794 146.391 3.57079C143.692 4.28523 141.346 5.9351 139.784 8.2167C138.223 10.4983 137.552 13.258 137.894 15.9879C138.237 18.7177 139.57 21.234 141.649 23.0734C143.727 24.9127 146.411 25.9515 149.206 25.9983C152.001 26.0452 154.719 25.0971 156.86 23.3284C159.001 21.5598 160.421 19.0898 160.857 16.373C161.294 13.6562 160.719 10.8755 159.238 8.54293C157.939 6.49802 156.021 4.91809 153.766 4.01742ZM7.15708 20.9454C3.71176 20.9446 1.53349 18.0218 1.53349 14.6134C1.53349 11.1651 3.76899 8.23707 7.20347 8.23707C8.28502 8.23707 9.39225 8.53636 10.3603 9.0568L10.414 8.97287C9.41977 8.36329 8.19338 8.0221 7.01247 8.0221C3.65653 8.0221 1 10.7869 1 14.6698C1 18.4722 3.56355 21.1912 6.92515 21.1912C8.1305 21.1912 9.42635 20.8476 10.4309 20.2546L10.3523 20.1308C9.39517 20.6334 8.26438 20.9451 7.15845 20.9454M9.90261 19.2375C10.1757 19.0932 10.4316 18.9309 10.6633 18.7547L11.782 20.5173C10.5269 21.5925 8.63052 22.1912 6.92515 22.1912C2.92914 22.1912 0 18.9386 0 14.6698C0 10.3177 3.02464 7.0221 7.01247 7.0221C8.70419 7.0221 10.4887 7.62618 11.7629 8.72024L10.6633 10.4385C10.4098 10.2438 10.1363 10.0692 9.84907 9.91743C9.02953 9.48439 8.09854 9.23707 7.20347 9.23707C4.46124 9.23707 2.53349 11.5661 2.53349 14.6134C2.53349 17.6279 4.41014 19.9446 7.15708 19.9454C7.15731 19.9454 7.15686 19.9454 7.15708 19.9454C7.15731 19.9454 7.15822 19.9454 7.15845 19.9454C8.1006 19.9451 9.07955 19.6727 9.90261 19.2375ZM149.413 22.9899C147.769 22.9899 146.189 22.3474 145.022 21.1988C143.854 20.0496 143.195 18.4875 143.195 16.8552C143.195 15.2229 143.854 13.6608 145.022 12.5116C146.189 11.363 147.769 10.7205 149.413 10.7205C151.057 10.7205 152.637 11.363 153.805 12.5116C154.973 13.6608 155.632 15.2229 155.632 16.8552C155.632 18.4875 154.973 20.0496 153.805 21.1988C152.637 22.3474 151.057 22.9899 149.413 22.9899ZM107.573 9.39547V13.3717H109.579C110.807 13.3717 111.775 12.7099 111.775 11.3044C111.775 9.94854 110.838 9.39547 109.46 9.39547H107.573ZM76.777 9.39547V13.3717H78.7825C80.0049 13.3717 80.9735 12.7099 80.9735 11.3044C80.9735 9.94854 80.0376 9.39547 78.6597 9.39547H76.777ZM79.4032 19.8045C80.7948 19.8045 81.818 19.1198 81.818 17.6298C81.818 16.1397 80.7948 15.4416 79.2259 15.4416H76.7838V19.8045H79.4032ZM20.4644 14.2644V14.2617C22.2107 14.2617 23.1793 13.3958 23.1793 11.848C23.1793 10.2278 22.1111 9.40487 20.4644 9.40487H18.3225V14.2644H20.4644ZM145.723 20.486C146.702 21.4489 148.029 21.9899 149.413 21.9899C150.797 21.9899 152.125 21.4489 153.103 20.486C154.082 19.523 154.632 18.217 154.632 16.8552C154.632 15.4934 154.082 14.1874 153.103 13.2244C152.125 12.2615 150.797 11.7205 149.413 11.7205C148.029 11.7205 146.702 12.2615 145.723 13.2244C144.745 14.1874 144.195 15.4934 144.195 16.8552C144.195 18.217 144.745 19.523 145.723 20.486Z" fill="black"/>
</svg>
